<svg width="864" height="416" viewBox="0 0 864 416" fill="none" xmlns="http://www.w3.org/2000/svg">
<path fill-rule="evenodd" clip-rule="evenodd" d="M863.9 416H0C3.55207 185.657 195.582 0 431.95 0C668.318 0 860.348 185.657 863.9 416Z" fill="#3FB4A5" fill-opacity="0.3"/>
<path fill-rule="evenodd" clip-rule="evenodd" d="M838.95 416H24.9502C25.2259 199.459 207.34 24 431.95 24C656.56 24 838.674 199.459 838.95 416Z" fill="#3FB4A5" fill-opacity="0.5"/>
<path fill-rule="evenodd" clip-rule="evenodd" d="M60.9971 416H803.902C800.702 213.317 635.622 50 432.45 50C229.277 50 64.1978 213.317 60.9971 416Z" fill="#3FB4A5" fill-opacity="0.8"/>
<path fill-rule="evenodd" clip-rule="evenodd" d="M773.89 416H91.0107C94.4755 230.394 246.016 81 432.45 81C618.884 81 770.425 230.394 773.89 416Z" fill="#3FB4A5"/>
</svg>
